<?xml version="1.0" standalone="no"?>
<!DOCTYPE svg PUBLIC "-//W3C//DTD SVG 20010904//EN"
 "http://www.w3.org/TR/2001/REC-SVG-20010904/DTD/svg10.dtd">
<svg version="1.0" xmlns="http://www.w3.org/2000/svg"
 width="280.000000pt" height="280.000000pt" viewBox="0 0 280.000000 280.000000"
 preserveAspectRatio="xMidYMid meet">
<metadata>
Created by potrace 1.11, written by Peter Selinger 2001-2013
</metadata>
<g transform="translate(0.000000,280.000000) scale(0.100000,-0.100000)"
fill="#000000" stroke="none">
<path d="M1337 2235 c-1 -2 -24 -5 -52 -8 -70 -7 -140 -26 -210 -56 -111 -48
-113 -33 24 -170 66 -66 125 -121 130 -121 5 0 22 5 38 11 43 17 181 19 247 4
98 -23 165 -62 244 -142 39 -41 72 -79 72 -85 0 -5 9 -22 20 -37 34 -48 59
-160 55 -248 -3 -43 -9 -94 -15 -113 -5 -19 -10 -38 -10 -42 0 -4 54 -62 119
-128 l120 -120 25 42 c28 49 71 159 80 203 4 17 9 41 12 55 8 34 12 212 5 225
-3 6 -6 15 -7 20 -32 191 -109 340 -246 473 -135 131 -265 196 -457 228 -33 6
-189 12 -194 9z"/>
<path d="M800 1989 c-52 -54 -96 -103 -98 -109 -2 -6 50 -64 116 -130 94 -94
124 -118 139 -113 26 10 202 184 209 207 9 28 -210 247 -246 245 -18 -1 -52
-30 -120 -100z"/>
<path d="M641 1767 c-29 -64 -60 -159 -67 -207 -10 -68 -13 -80 -20 -91 -5 -8
-3 -9 6 -4 9 6 11 4 5 -6 -10 -15 -14 -129 -6 -129 3 0 7 -19 8 -42 4 -65 40
-186 79 -263 120 -238 364 -420 605 -452 117 -15 279 -8 359 17 19 6 42 13 50
15 31 7 150 68 150 77 0 5 -52 60 -115 124 -100 99 -118 113 -135 104 -11 -6
-23 -10 -27 -9 -4 1 -10 0 -13 -1 -39 -15 -192 -13 -250 4 -170 51 -310 193
-355 362 -19 72 -20 191 -2 259 l13 50 -123 122 c-68 68 -127 123 -131 123 -4
0 -18 -24 -31 -53z"/>
<path d="M1652 1147 c-56 -56 -102 -109 -102 -117 0 -21 452 -469 471 -467 9
2 64 51 123 110 l108 107 -234 235 c-129 129 -241 235 -249 235 -8 0 -60 -46
-117 -103z"/>
</g>
</svg>
